# OBJ written from C:\Users\Work1\Desktop\low.obj
# Units	meters

o low
v 0 0 -0.244386
v -0.172807 0 -0.172807
v -0.244386 0 0
v -0.172807 0 0.172807
v 0 0 0.244386
v 0.172807 0 0.172807
v 0.244386 0 0
v 0.172807 0 -0.172807
v 0.17336 0.842615 -0.17336
v 0 0.842615 -0.245167
v -0.17336 0.842615 -0.17336
v -0.245167 0.842615 0
v -0.17336 0.842615 0.17336
v 0 0.842615 0.245167
v 0.17336 0.842615 0.17336
v 0.245167 0.842615 0
v 0.0381687 1.12013 -0.0381687
v 0 1.12013 -0.0539787
v -0.0381687 1.12013 -0.0381687
v -0.0539787 1.12013 0
v -0.0381687 1.12013 0.0381687
v 0 1.12013 0.0539787
v 0.0381687 1.12013 0.0381687
v 0.0539787 1.12013 0
v 0.0679786 0.559181 0.253023
v 0.0180888 0.509367 0.253023
v -0.0499979 0.527664 0.253023
v -0.0681949 0.595777 0.253023
v -0.0183054 0.645591 0.253023
v 0.0497813 0.627293 0.253023
v -0.0681949 0.595777 0.118385
v -0.0499979 0.527664 0.118385
v -0.0183054 0.645591 0.118385
v 0.0497813 0.627293 0.118385
v 0.0679786 0.559181 0.118385
v 0.0180888 0.509367 0.118385
v 0.0244852 0.570868 0.274538
v 0.00646516 0.552874 0.274538
v -0.0181282 0.559484 0.274538
v -0.0247008 0.584085 0.274538
v -0.00668066 0.602079 0.274538
v 0.017912 0.595471 0.274538
v 0.268163 0.503891 0.0708518
v 0.268163 0.479231 -0.0283586
v 0.268163 0.552823 -0.0993176
v 0.268163 0.651066 -0.0710689
v 0.268163 0.675727 0.0281419
v 0.268163 0.602135 0.0991008
v 0.123174 0.651066 -0.0710689
v 0.123174 0.552823 -0.0993176
v 0.123174 0.675727 0.0281419
v 0.123174 0.602135 0.0991008
v 0.123174 0.503891 0.0708518
v 0.123174 0.479231 -0.0283586
v 0.29964 0.550186 0.0262087
v 0.29964 0.541041 -0.0105857
v 0.29964 0.568334 -0.0369027
v 0.29964 0.604772 -0.0264254
v 0.29964 0.613917 0.010369
v 0.29964 0.586624 0.0366864
v 0.0679786 0.559181 -0.253023
v 0.0180888 0.509367 -0.253023
v -0.0499979 0.527664 -0.253023
v -0.0681949 0.595777 -0.253023
v -0.0183054 0.645591 -0.253023
v 0.0497813 0.627293 -0.253023
v -0.0681949 0.595777 -0.118385
v -0.0499979 0.527664 -0.118385
v -0.0183054 0.645591 -0.118385
v 0.0497813 0.627293 -0.118385
v 0.0679786 0.559181 -0.118385
v 0.0180888 0.509367 -0.118385
v 0.0244852 0.570868 -0.274538
v 0.00646516 0.552874 -0.274538
v -0.0181282 0.559484 -0.274538
v -0.0247008 0.584085 -0.274538
v -0.00668066 0.602079 -0.274538
v 0.017912 0.595471 -0.274538
v 0.0116296 0.533544 -0.253023
v -0.0322871 0.545348 -0.253023
v 0.268163 0.561575 -0.0640986
v 0.0438083 0.565675 -0.253023
v -0.0440239 0.589278 -0.253023
v -0.0118451 0.62141 -0.253023
v 0.268163 0.624946 -0.0458771
v 0.268163 0.64085 0.0181132
v 0.0320704 0.60961 -0.253023
v 0.0116296 0.533544 0.253023
v -0.0322871 0.545348 0.253023
v 0.0438083 0.565675 0.253023
v 0.268163 0.530012 0.0456604
v 0.268163 0.514108 -0.0183298
v -0.0440239 0.589278 0.253023
v -0.0118451 0.62141 0.253023
v 0.0320704 0.60961 0.253023
v 0.268163 0.593384 0.0638825
v 0 0.0525138 -0.244386
v -0.172807 0.0525138 -0.172807
v -0.244386 0.0525138 0
v 0 0.102514 -0.165148
v -0.116777 0.102514 -0.116777
v -0.165148 0.102514 0
v 0.172807 0.0525138 -0.172807
v 0.244386 0.0525138 0
v 0.116777 0.102514 -0.116777
v 0.165148 0.102514 0
v 0 0.807552 -0.165148
v -0.116777 0.807552 -0.116777
v -0.165148 0.807552 0
v 0.116777 0.807552 -0.116777
v 0.165148 0.807552 0
v 0 0.886443 -0.245167
v -0.17336 0.886443 -0.17336
v -0.245167 0.886443 0
v 0.17336 0.886443 -0.17336
v 0.245167 0.886443 0
v -0.172807 0.0525138 0.172807
v 0 0.0525138 0.244386
v -0.116777 0.102514 0.116777
v 0 0.102514 0.165148
v 0.172807 0.0525138 0.172807
v 0.116777 0.102514 0.116777
v -0.116777 0.807552 0.116777
v 0 0.807552 0.165148
v 0.116777 0.807552 0.116777
v -0.17336 0.886443 0.17336
v 0 0.886443 0.245167
v 0.17336 0.886443 0.17336
v -5.09548e-010 1.12013 0
v 0.29964 0.577479 -0.000108318
v -0.000107759 0.577477 -0.274538
v -0.000107753 0.577477 0.274538
v 0.133927 1.01766 0
v 0.0947006 1.01766 -0.0947006
v 0.180772 0.952054 0
v 0.127825 0.952054 -0.127825
v 0 1.01766 -0.133927
v 0 0.952054 -0.180772
v 0 1.01766 0.133927
v 0.0947006 1.01766 0.0947006
v 0 0.952054 0.180772
v 0.127825 0.952054 0.127825
v -0.0947006 1.01766 -0.0947006
v -0.127825 0.952054 -0.127825
v -0.133927 1.01766 0
v -0.180772 0.952054 0
v -0.0947006 1.01766 0.0947006
v -0.127825 0.952054 0.127825
v 0 0.886443 -0.199921
v -0.141366 0.886443 -0.141366
v -0.199921 0.886443 0
v 0.141366 0.886443 -0.141366
v 0.199921 0.886443 0
v 0 1.08327 -0.0539787
v -0.0381687 1.08327 -0.0381687
v -0.0539787 1.08327 0
v 0.0381687 1.08327 -0.0381687
v 0.0539787 1.08327 0
v -0.141366 0.886443 0.141366
v 0 0.886443 0.199921
v 0.141366 0.886443 0.141366
v -0.0381687 1.08327 0.0381687
v 0 1.08327 0.0539787
v 0.0381687 1.08327 0.0381687
vn 0 0 1
vn 0.965733 -0.259538 0
vn 0.707626 0.706587 0
vn -0.258096 0.966119 0
vn 0 0.241198 0.970476
vn 0 0.961059 0.276344
vn 0 -0.719843 0.694137
vn -0.202162 -0.752132 0.627238
vn 0.202087 0.752134 0.62726
vn 0.5503 -0.551114 0.627251
vn -0.965732 0.25954 0
vn 0.258101 -0.966118 0
vn -0.550299 0.551114 0.627251
vn 0.752426 0.20102 0.627252
vn -0.707624 -0.706589 0
vn -0.752426 -0.201024 0.627251
vn 1 0 0
vn 0.610597 0.549707 0.570082
vn 0.610601 0.768557 -0.191016
vn 0.610595 -0.218851 0.761103
vn 0.610594 -0.549701 -0.570091
vn 0.610602 -0.768556 0.191016
vn 0 0.71984 -0.69414
vn 0 -0.961058 -0.276348
vn 0.610594 0.218847 -0.761105
vn 0 -0.241199 -0.970476
vn -0.752426 -0.201024 -0.627251
vn 0.550299 -0.551114 -0.627251
vn -0.202162 -0.752132 -0.627238
vn 0.202087 0.752134 -0.62726
vn 0.752426 0.20102 -0.627252
vn -0.550299 0.551114 -0.627251
vn 0 0 -1
vn -0.707107 0 -0.707107
vn -1 0 0
vn 0.707107 0 -0.707107
vn 0.707107 0 0.707107
vn -0.707107 0 0.707107
vn -0.283789 -0.91593 0.283789
vn -0.40134 -0.915929 0
vn 0.283789 -0.91593 -0.283789
vn 0.40134 -0.915929 0
vn 0 -0.915929 -0.40134
vn -0.283789 -0.91593 -0.283789
vn 0.283789 -0.91593 0.283789
vn 0 -0.915929 0.40134
vn -0.377347 0.845706 -0.377347
vn -0.533649 0.845706 0
vn 0.377347 0.845706 -0.377347
vn 0.533649 0.845706 0
vn 0 0.845706 -0.533649
vn 0.377347 0.845706 0.377347
vn 0 0.845706 0.533649
vn -0.377347 0.845706 0.377347
vn 0 1 0
vn -0.635572 0.438288 -0.635572
vn -0.898835 0.438287 0
vn -0.729511 0.683969 0
vn -0.515842 0.683969 -0.515842
vn -0.635572 0.438288 0.635572
vn 2.81852e-007 0.438285 0.898836
vn 0 0.683969 0.729511
vn -0.515842 0.683969 0.515842
vn 0.635573 0.438286 0.635573
vn 0.898836 0.438285 -2.81852e-007
vn 0.729511 0.683969 0
vn 0.515842 0.683969 0.515842
vn 0.635573 0.438286 -0.635573
vn 0 0.438287 -0.898835
vn 0 0.683969 -0.729511
vn 0.515842 0.683969 -0.515842
vn -0.634382 0.77302 0
vn -0.448576 0.773019 -0.448576
vn 0.634382 0.77302 0
vn 0.448576 0.773019 0.448576
vn 0 0.77302 -0.634382
vn 0.448576 0.773019 -0.448576
vn 0 0.77302 0.634382
vn -0.448576 0.773019 0.448576
vn 0.959949 0.280173 -5.61257e-007
vn 0.678787 0.280174 -0.678786
vn -0.678785 0.28018 0.678785
vn 5.61257e-007 0.280173 0.959949
vn 0.678786 0.280174 0.678787
vn -0.959948 0.280179 0
vn -0.678785 0.28018 -0.678785
vn 0 0.280179 -0.959948
vt 0.907568 0.723279
vt 0.943352 0.723279
vt 0.943352 0.734721
vt 0.907568 0.734721
vt 0.800432 0.105542
vt 0.800432 0.0184579
vt 0.836216 0.0184579
vt 0.836216 0.105542
vt 0.836 0.723279
vt 0.836 0.734721
vt 0.800216 0.734721
vt 0.800216 0.723279
vt 0.872 0.0184579
vt 0.872 0.105542
vt 0.871784 0.723279
vt 0.871784 0.734721
vt 0.764432 0.723279
vt 0.764432 0.734721
vt 0.728648 0.734721
vt 0.728648 0.723279
vt 0.879704 0.349226
vt 0.828157 0.349226
vt 0.828157 0.255343
vt 0.879704 0.255343
vt 0.931249 0.255343
vt 0.931249 0.349226
vt 0.206276 0.552494
vt 0.191795 0.552282
vt 0.18339 0.538134
vt 0.214327 0.53814
vt 0.214312 0.591725
vt 0.183377 0.591715
vt 0.191427 0.577362
vt 0.205908 0.577576
vt 0.213332 0.56514
vt 0.229788 0.564936
vt 0.907784 0.0184579
vt 0.907784 0.105542
vt 0.764648 0.105542
vt 0.764648 0.0184579
vt 0.167915 0.56492
vt 0.184371 0.564715
vt 0.943568 0.0184579
vt 0.943568 0.105542
vt 0.979352 0.0184579
vt 0.979352 0.105542
vt 0.834 0.764376
vt 0.834 0.781624
vt 0.782454 0.781624
vt 0.782454 0.764376
vt 0.937092 0.764376
vt 0.937092 0.781624
vt 0.885546 0.781624
vt 0.885546 0.764376
vt 0.730909 0.781624
vt 0.730909 0.764376
vt 0.988638 0.764376
vt 0.988638 0.781624
vt 0.679362 0.764376
vt 0.679362 0.781624
vt 0.165219 0.609449
vt 0.153326 0.629715
vt 0.131861 0.629841
vt 0.120257 0.609407
vt 0.121237 0.648491
vt 0.0977392 0.648323
vt 0.187665 0.64841
vt 0.164168 0.648242
vt 0.120184 0.687284
vt 0.132078 0.667018
vt 0.153543 0.666894
vt 0.165147 0.687326
vt 0.776611 0.349226
vt 0.776611 0.255343
vt 0.982795 0.349226
vt 0.982795 0.255343
vt 0.725066 0.349226
vt 0.725066 0.255343
vt 0.673519 0.349226
vt 0.673519 0.255343
vt 0.947568 0.225542
vt 0.911784 0.225542
vt 0.911784 0.138458
vt 0.947568 0.138458
vt 0.477411 0.630376
vt 0.493688 0.630209
vt 0.500906 0.642583
vt 0.49291 0.656763
vt 0.523515 0.656534
vt 0.515234 0.64252
vt 0.522345 0.630081
vt 0.538623 0.629916
vt 0.876 0.225542
vt 0.876 0.138458
vt 0.840216 0.225542
vt 0.840216 0.138458
vt 0.983352 0.225542
vt 0.983352 0.138458
vt 0.523123 0.603523
vt 0.515127 0.617704
vt 0.500799 0.61777
vt 0.492517 0.603759
vt 0.804432 0.225542
vt 0.804432 0.138458
vt 0.768648 0.225542
vt 0.768648 0.138458
vt 0.907568 0.741279
vt 0.943352 0.741279
vt 0.943352 0.752721
vt 0.907568 0.752721
vt 0.764432 0.741279
vt 0.764432 0.752721
vt 0.728648 0.752721
vt 0.728648 0.741279
vt 0.836 0.741279
vt 0.871784 0.741279
vt 0.871784 0.752721
vt 0.836 0.752721
vt 0.800216 0.741279
vt 0.800216 0.752721
vt 0.783063 0.914982
vt 0.889084 0.914982
vt 0.889084 0.939962
vt 0.783063 0.939962
vt 0.677041 0.914982
vt 0.677041 0.939962
vt 0.57102 0.914982
vt 0.57102 0.939962
vt 0.464999 0.914982
vt 0.464999 0.939962
vt 0.358979 0.939962
vt 0.358979 0.914982
vt 0.252958 0.914982
vt 0.252958 0.939962
vt 0.146937 0.914982
vt 0.146937 0.939962
vt 0.0409153 0.914982
vt 0.0409153 0.939962
vt 0.129144 0.843304
vt 0.0381926 0.843304
vt 0.0381926 0.796696
vt 0.129144 0.796696
vt 0.492952 0.843304
vt 0.402 0.843304
vt 0.402 0.796696
vt 0.492952 0.796696
vt 0.583904 0.796696
vt 0.583904 0.843304
vt 0.674855 0.843304
vt 0.674855 0.796696
vt 0.765807 0.796696
vt 0.765807 0.843304
vt 0.311048 0.843304
vt 0.311048 0.796696
vt 0.220096 0.843304
vt 0.220096 0.796696
vt 0.576968 0.716888
vt 0.472397 0.759982
vt 0.472451 0.70674
vt 0.53771 0.677566
vt 0.57718 0.507814
vt 0.537841 0.547056
vt 0.472643 0.517751
vt 0.472698 0.464509
vt 0.566982 0.61234
vt 0.62022 0.612395
vt 0.368126 0.5076
vt 0.407384 0.546924
vt 0.378112 0.612148
vt 0.324874 0.612094
vt 0.367914 0.716676
vt 0.407251 0.677433
vt 0.146937 0.900883
vt 0.146937 0.871117
vt 0.252958 0.871114
vt 0.252958 0.90088
vt 0.57102 0.900883
vt 0.57102 0.871117
vt 0.677041 0.871115
vt 0.677041 0.900881
vt 0.0409153 0.900883
vt 0.0409153 0.871117
vt 0.464999 0.900883
vt 0.464999 0.871117
vt 0.783063 0.900883
vt 0.783063 0.871117
vt 0.889084 0.87112
vt 0.889084 0.900885
vt 0.358979 0.90088
vt 0.358979 0.871114
vt 0.016 0.032
vt 0.0883899 0.032
vt 0.0883899 0.435784
vt 0.016 0.435784
vt 0.16078 0.032
vt 0.16078 0.435784
vt 0.522729 0.032
vt 0.595119 0.032
vt 0.595119 0.435784
vt 0.522729 0.435784
vt 0.23317 0.032
vt 0.23317 0.435784
vt 0.30556 0.032
vt 0.37795 0.032
vt 0.37795 0.435784
vt 0.30556 0.435784
vt 0.450339 0.032
vt 0.450339 0.435784
vt 0.471121 0.588014
vt 0.461996 0.610015
vt 0.44 0.588
vt 0.439986 0.619121
vt 0.417985 0.609996
vt 0.40888 0.587986
vt 0.418004 0.565985
vt 0.440014 0.556879
vt 0.462015 0.566004
vt 0.142702 0.648367
vt 0.508017 0.630144
vt 0.198852 0.564928
vt 0.701301 0.405863
vt 0.776199 0.422918
vt 0.755563 0.464141
vt 0.700714 0.450684
vt 0.900298 0.40282
vt 0.975262 0.419568
vt 0.954798 0.460872
vt 0.899896 0.44764
vt 0.900046 0.634075
vt 0.824824 0.61896
vt 0.844374 0.577273
vt 0.899486 0.589307
vt 0.701223 0.637009
vt 0.626345 0.620304
vt 0.646768 0.579048
vt 0.701611 0.592243
vt 0.756667 0.580004
vt 0.776378 0.621616
vt 0.64553 0.462699
vt 0.625982 0.42095
vt 0.954276 0.575896
vt 0.97486 0.617081
vt 0.844766 0.459882
vt 0.825047 0.418216
vt 0.838 0.688476
vt 0.838 0.709524
vt 0.814406 0.709524
vt 0.814406 0.688476
vt 0.790812 0.688476
vt 0.790812 0.709524
vt 0.908781 0.688476
vt 0.932375 0.688476
vt 0.932375 0.709524
vt 0.908781 0.709524
vt 0.767219 0.688476
vt 0.767219 0.709524
vt 0.885188 0.688476
vt 0.885188 0.709524
vt 0.743625 0.688476
vt 0.743625 0.709524
vt 0.861594 0.688476
vt 0.861594 0.709524
vt 0.30541 0.611999
vt 0.264286 0.711284
vt 0.245962 0.692961
vt 0.279497 0.611999
vt 0.245962 0.531039
vt 0.264286 0.512715
vt 0.165001 0.75241
vt 0.165001 0.726497
vt 0.165002 0.47159
vt 0.165001 0.497503
vt 0.0840395 0.531037
vt 0.0657164 0.512713
vt 0.0245899 0.611999
vt 0.0505031 0.612
vt 0.0840381 0.692963
vt 0.0657148 0.711286
vt 0.722576 0.513814
vt 0.699973 0.507135
vt 0.876037 0.526833
vt 0.898777 0.532923
vt 0.677203 0.51322
vt 0.679485 0.529292
vt 0.70209 0.535862
vt 0.921357 0.526262
vt 0.724803 0.529684
vt 0.922019 0.510676
vt 0.899391 0.504091
vt 0.876648 0.510269
vt 0.787254 0.65861
vt 0.700892 0.67466
vt 0.900637 0.365123
vt 0.986806 0.382729
vt 0.900515 0.671727
vt 0.814085 0.655996
vt 0.986525 0.65384
vt 0.814166 0.381175
vt 0.701795 0.368165
vt 0.787896 0.386124
vt 0.614824 0.657101
vt 0.615253 0.383863
mtllib low.mtl
usemtl 1
g Default
f 27/1/1 26/2/1 88/3/1 89/4/1
f 25/5/2 35/6/2 34/7/3 30/8/3
f 29/9/1 94/10/1 95/11/1 30/12/1
f 30/8/3 34/7/3 33/13/4 29/14/4
f 28/15/1 93/16/1 94/10/1 29/9/1
f 25/17/1 30/12/1 95/11/1 90/18/1
f 27/1/1 89/4/1 93/16/1 28/15/1
f 25/17/1 90/18/1 88/19/1 26/20/1
f 48/21/5 47/22/6 51/23/6 52/24/5
f 52/24/5 53/25/7 43/26/7 48/21/5
f 38/27/8 39/28/8 89/29/8 88/30/8
f 95/31/9 94/32/9 41/33/9 42/34/9
f 37/35/10 38/27/10 88/30/10 90/36/10
f 29/14/4 33/13/4 31/37/11 28/38/11
f 26/39/12 36/40/12 35/6/2 25/5/2
f 94/32/13 93/41/13 40/42/13 41/33/13
f 90/36/14 95/31/14 42/34/14 37/35/14
f 28/38/11 31/37/11 32/43/15 27/44/15
f 27/44/15 32/43/15 36/45/12 26/46/12
f 93/41/16 89/29/16 39/28/16 40/42/16
f 47/47/17 86/48/17 85/49/17 46/50/17
f 43/51/17 91/52/17 96/53/17 48/54/17
f 46/50/17 85/49/17 81/55/17 45/56/17
f 44/57/17 92/58/17 91/52/17 43/51/17
f 44/59/17 45/56/17 81/55/17 92/60/17
f 47/47/17 48/54/17 96/53/17 86/48/17
f 96/61/18 60/62/18 59/63/18 86/64/18
f 86/64/19 59/63/19 58/65/19 85/66/19
f 91/67/20 55/68/20 60/62/20 96/61/20
f 81/69/21 57/70/21 56/71/21 92/72/21
f 92/72/22 56/71/22 55/68/22 91/67/22
f 47/22/6 46/73/23 49/74/23 51/23/6
f 44/75/24 43/26/7 53/25/7 54/76/24
f 85/66/25 58/65/25 57/70/25 81/69/25
f 46/73/23 45/77/26 50/78/26 49/74/23
f 45/77/26 44/79/24 54/80/24 50/78/26
f 61/81/2 66/82/3 70/83/3 71/84/2
f 83/85/27 76/86/27 75/87/27 80/88/27
f 79/89/28 74/90/28 73/91/28 82/92/28
f 66/82/3 65/93/4 69/94/4 70/83/3
f 80/88/29 75/87/29 74/90/29 79/89/29
f 65/93/4 64/95/11 67/96/11 69/94/4
f 62/97/12 61/81/2 71/84/2 72/98/12
f 87/99/30 78/100/30 77/101/30 84/102/30
f 64/95/11 63/103/15 68/104/15 67/96/11
f 63/103/15 62/105/12 72/106/12 68/104/15
f 82/92/31 73/91/31 78/100/31 87/99/31
f 84/102/32 77/101/32 76/86/32 83/85/32
f 61/107/33 62/108/33 79/109/33 82/110/33
f 63/111/33 80/112/33 79/113/33 62/114/33
f 65/115/33 66/116/33 87/117/33 84/118/33
f 61/107/33 82/110/33 87/117/33 66/116/33
f 64/119/33 65/115/33 84/118/33 83/120/33
f 63/111/33 64/119/33 83/120/33 80/112/33
f 11/121/34 12/122/35 114/123/35 113/124/34
f 10/125/33 11/121/34 113/124/34 112/126/33
f 9/127/36 10/125/33 112/126/33 115/128/36
f 16/129/17 116/130/17 128/131/37 15/132/37
f 14/133/1 15/132/37 128/131/37 127/134/1
f 13/135/38 14/133/1 127/134/1 126/136/38
f 12/137/35 13/135/38 126/136/38 114/138/35
f 16/129/17 9/127/36 115/128/36 116/130/17
f 13/139/39 12/140/40 109/141/40 123/142/39
f 9/143/41 16/144/42 111/145/42 110/146/41
f 9/143/41 110/146/41 107/147/43 10/148/43
f 11/149/44 108/150/44 109/151/40 12/152/40
f 11/149/44 10/148/43 107/147/43 108/150/44
f 15/153/45 125/154/45 111/145/42 16/144/42
f 15/153/45 14/155/46 124/156/46 125/154/45
f 13/139/39 123/142/39 124/156/46 14/155/46
f 98/157/47 99/158/48 102/159/48 101/160/47
f 103/161/49 105/162/49 106/163/50 104/164/50
f 98/157/47 101/160/47 100/165/51 97/166/51
f 103/161/49 97/166/51 100/165/51 105/162/49
f 121/167/52 122/168/52 120/169/53 118/170/53
f 117/171/54 118/170/53 120/169/53 119/172/54
f 121/167/52 104/164/50 106/163/50 122/168/52
f 117/171/54 119/172/54 102/159/48 99/158/48
f 117/173/38 4/174/38 5/175/1 118/176/1
f 103/177/36 8/178/36 1/179/33 97/180/33
f 99/181/35 3/182/35 4/174/38 117/173/38
f 8/178/36 103/177/36 104/183/17 7/184/17
f 98/185/34 2/186/34 3/187/35 99/188/35
f 97/180/33 1/179/33 2/186/34 98/185/34
f 121/189/37 6/190/37 7/184/17 104/183/17
f 118/176/1 5/175/1 6/190/37 121/189/37
f 102/191/35 119/192/38 123/193/38 109/194/35
f 119/192/38 120/195/1 124/196/1 123/193/38
f 101/197/34 102/198/35 109/199/35 108/200/34
f 120/195/1 122/201/37 125/202/37 124/196/1
f 106/203/17 105/204/36 110/205/36 111/206/17
f 122/201/37 106/203/17 111/206/17 125/202/37
f 105/204/36 100/207/33 107/208/33 110/205/36
f 100/207/33 101/197/34 108/200/34 107/208/33
f 24/209/55 17/210/55 129/211/55
f 17/210/55 18/212/55 129/211/55
f 18/212/55 19/213/55 129/211/55
f 19/213/55 20/214/55 129/211/55
f 20/214/55 21/215/55 129/211/55
f 21/215/55 22/216/55 129/211/55
f 22/216/55 23/217/55 129/211/55
f 23/217/55 24/209/55 129/211/55
f 58/65/17 59/63/17 130/218/17
f 59/63/17 60/62/17 130/218/17
f 60/62/17 55/68/17 130/218/17
f 55/68/17 56/71/17 130/218/17
f 56/71/17 57/70/17 130/218/17
f 57/70/17 58/65/17 130/218/17
f 74/90/33 75/87/33 131/219/33
f 75/87/33 76/86/33 131/219/33
f 76/86/33 77/101/33 131/219/33
f 77/101/33 78/100/33 131/219/33
f 78/100/33 73/91/33 131/219/33
f 73/91/33 74/90/33 131/219/33
f 37/35/1 42/34/1 132/220/1
f 42/34/1 41/33/1 132/220/1
f 41/33/1 40/42/1 132/220/1
f 40/42/1 39/28/1 132/220/1
f 39/28/1 38/27/1 132/220/1
f 38/27/1 37/35/1 132/220/1
f 144/221/56 146/222/57 145/223/58 143/224/59
f 148/225/60 141/226/61 139/227/62 147/228/63
f 142/229/64 135/230/65 133/231/66 140/232/67
f 136/233/68 138/234/69 137/235/70 134/236/71
f 136/233/68 134/236/71 133/237/66 135/238/65
f 144/221/56 143/224/59 137/239/70 138/240/69
f 142/229/64 140/232/67 139/241/62 141/242/61
f 148/225/60 147/228/63 145/243/58 146/244/57
f 158/245/17 24/246/17 23/247/37 164/248/37
f 163/249/1 164/248/37 23/247/37 22/250/1
f 155/251/34 156/252/35 20/253/35 19/254/34
f 162/255/38 163/249/1 22/250/1 21/256/38
f 154/257/33 155/251/34 19/254/34 18/258/33
f 156/259/35 162/255/38 21/256/38 20/260/35
f 157/261/36 154/257/33 18/258/33 17/262/36
f 158/245/17 157/261/36 17/262/36 24/246/17
f 114/263/55 126/264/55 159/265/55 151/266/55
f 114/263/55 151/266/55 150/267/55 113/268/55
f 127/269/55 160/270/55 159/265/55 126/264/55
f 112/271/55 149/272/55 152/273/55 115/274/55
f 112/271/55 113/268/55 150/267/55 149/272/55
f 116/275/55 115/274/55 152/273/55 153/276/55
f 116/275/55 153/276/55 161/277/55 128/278/55
f 127/269/55 128/278/55 161/277/55 160/270/55
f 145/223/58 156/279/72 155/280/73 143/224/59
f 133/231/66 158/281/74 164/282/75 140/232/67
f 137/239/70 143/224/59 155/280/73 154/283/76
f 137/235/70 154/284/76 157/285/77 134/236/71
f 139/241/62 140/232/67 164/282/75 163/286/78
f 133/237/66 134/236/71 157/285/77 158/287/74
f 139/227/62 163/288/78 162/289/79 147/228/63
f 145/243/58 147/228/63 162/289/79 156/290/72
f 153/291/80 152/292/81 136/233/68 135/238/65
f 159/293/82 160/294/83 141/226/61 148/225/60
f 161/295/84 153/296/80 135/230/65 142/229/64
f 160/297/83 161/295/84 142/229/64 141/242/61
f 159/293/82 148/225/60 146/244/57 151/298/85
f 150/299/86 151/300/85 146/222/57 144/221/56
f 152/292/81 149/301/87 138/234/69 136/233/68
f 150/299/86 144/221/56 138/240/69 149/302/87
