# Blender v2.79 (sub 0) OBJ File: 'Models_Capitole.blend'
# www.blender.org
mtllib Corcho.mtl
o Cube_Cube.002
v 0.798298 0.862528 -0.126892
v 0.798298 -0.080299 -0.126892
v 0.857825 0.898035 -0.078419
v 0.857825 -0.115807 -0.078419
v -0.782306 0.862528 -0.126892
v -0.782306 -0.080299 -0.126892
v -0.841832 0.898035 -0.078419
v -0.841832 -0.115807 -0.078419
v 0.857825 0.898035 -0.126892
v 0.857825 -0.115807 -0.126892
v -0.841832 -0.115807 -0.126892
v -0.841832 0.898035 -0.126892
v 0.798298 0.862528 -0.113694
v 0.798298 -0.080299 -0.113694
v -0.782306 -0.080299 -0.113694
v -0.782306 0.862528 -0.113694
v 0.798298 0.862528 -0.112321
v 0.798298 -0.080299 -0.112321
v -0.782306 -0.080299 -0.112321
v -0.782306 0.862528 -0.112321
vn 1.0000 0.0000 0.0000
vn 0.0000 0.0000 1.0000
vn -1.0000 0.0000 0.0000
vn 0.0000 1.0000 0.0000
vn 0.0000 -1.0000 0.0000
vn -0.0000 0.0000 -1.0000
usemtl None
s off
f 9//1 3//1 4//1 10//1
f 3//2 7//2 8//2 4//2
f 7//3 12//3 11//3 8//3
f 2//3 14//3 13//3 1//3
f 3//4 9//4 12//4 7//4
f 8//5 11//5 10//5 4//5
f 1//6 9//6 10//6 2//6
f 6//6 11//6 12//6 5//6
f 5//6 12//6 9//6 1//6
f 2//6 10//6 11//6 6//6
f 15//4 19//4 18//4 14//4
f 6//4 15//4 14//4 2//4
f 5//1 16//1 15//1 6//1
f 1//5 13//5 16//5 5//5
f 20//6 17//6 18//6 19//6
f 16//1 20//1 19//1 15//1
f 13//5 17//5 20//5 16//5
f 14//3 18//3 17//3 13//3
