# Blender v2.79 (sub 0) OBJ File: 'Models_Capitole.blend'
# www.blender.org
mtllib u.mtl
o Cube.002_Cube.003
v -1.330360 -0.460995 0.887678
v -0.525301 1.539005 0.082619
v -1.330360 -0.460995 -1.112322
v -0.525301 1.539005 -0.307263
v 0.669640 -0.460995 0.887678
v -0.135419 1.539005 0.082619
v 0.669640 -0.460995 -1.112322
v -0.135419 1.539005 -0.307263
v -1.330360 1.539005 0.887678
v -1.330360 1.539005 -1.112322
v 0.669640 1.539005 -1.112322
v 0.669640 1.539005 0.887678
v -0.525301 2.866749 0.082619
v -0.525301 2.866749 -0.307263
v -0.135419 2.866749 -0.307263
v -0.135419 2.866749 0.082619
v -0.135419 2.609414 0.082619
v -0.525301 2.609414 0.082619
v -0.525301 2.609414 -0.307263
v -0.135419 2.609414 -0.307263
v -0.525301 2.866749 0.082619
v -0.525301 2.866749 -0.307263
v -0.135419 2.866749 -0.307263
v -0.135419 2.866749 0.082619
v -0.135419 2.609414 0.082619
v -0.525301 2.609414 -0.307263
v -0.525301 2.609414 0.082619
v -0.135419 2.609414 -0.307263
v -1.126089 2.866749 0.082619
v -1.126089 2.866749 -0.307263
v -1.126089 2.609414 -0.307263
v -1.126089 2.609414 0.082619
v 0.248562 2.866749 -0.307263
v 0.248562 2.866749 0.082619
v 0.248562 2.609414 0.082619
v 0.248562 2.609414 -0.307263
v 0.551401 2.866749 -0.307263
v 0.551401 2.866749 0.082619
v 0.551401 2.609414 0.082619
v 0.551401 2.609414 -0.307263
v -1.390047 2.866749 0.082619
v -1.390047 2.866749 -0.307263
v -1.390047 2.609414 -0.307263
v -1.390047 2.609414 0.082619
v 0.818286 2.866749 -0.307263
v 0.818286 2.866749 0.082619
v 0.818286 2.609414 0.082619
v 0.818286 2.609414 -0.307263
vn -1.0000 0.0000 0.0000
vn 0.0000 0.0000 -1.0000
vn 1.0000 0.0000 0.0000
vn 0.0000 0.0000 1.0000
vn 0.0000 -1.0000 0.0000
vn 0.0000 1.0000 0.0000
usemtl None
s off
f 1//1 9//1 10//1 3//1
f 3//2 10//2 11//2 7//2
f 7//3 11//3 12//3 5//3
f 5//4 12//4 9//4 1//4
f 3//5 7//5 5//5 1//5
f 18//4 17//4 16//4 13//4
f 2//6 4//6 10//6 9//6
f 4//6 8//6 11//6 10//6
f 8//6 6//6 12//6 11//6
f 6//6 2//6 9//6 12//6
f 15//6 14//6 13//6 16//6
f 20//2 19//2 14//2 15//2
f 16//4 17//4 25//4 24//4
f 14//4 19//4 26//4 22//4
f 4//1 2//1 18//1 19//1
f 6//3 8//3 20//3 17//3
f 8//2 4//2 19//2 20//2
f 2//4 6//4 17//4 18//4
f 28//2 23//2 33//2 36//2
f 22//2 26//2 31//2 30//2
f 17//4 20//4 28//4 25//4
f 15//4 16//4 24//4 23//4
f 20//4 15//4 23//4 28//4
f 13//4 14//4 22//4 21//4
f 18//4 13//4 21//4 27//4
f 19//4 18//4 27//4 26//4
f 31//5 32//5 44//5 43//5
f 26//5 27//5 32//5 31//5
f 27//4 21//4 29//4 32//4
f 21//6 22//6 30//6 29//6
f 35//5 36//5 40//5 39//5
f 23//6 24//6 34//6 33//6
f 24//4 25//4 35//4 34//4
f 25//5 28//5 36//5 35//5
f 40//2 37//2 45//2 48//2
f 34//4 35//4 39//4 38//4
f 36//2 33//2 37//2 40//2
f 33//6 34//6 38//6 37//6
f 43//1 44//1 41//1 42//1
f 30//2 31//2 43//2 42//2
f 32//4 29//4 41//4 44//4
f 29//6 30//6 42//6 41//6
f 47//3 48//3 45//3 46//3
f 37//6 38//6 46//6 45//6
f 39//5 40//5 48//5 47//5
f 38//4 39//4 47//4 46//4
