# Blender v2.79 (sub 0) OBJ File: ''
# www.blender.org
mtllib Puerta ascensor.mtl
o Cube
v 0.452399 -2.807025 -1.672369
v 0.452399 -2.807025 1.672370
v -0.452400 -3.127914 1.863548
v -0.452399 -3.127914 -1.863549
v 0.452400 2.807025 -1.672369
v 0.452399 2.807025 1.672370
v -0.452400 3.127914 1.863548
v -0.452399 3.127914 -1.863548
v 0.452399 -3.127914 -1.863548
v 0.452399 -3.127914 1.863548
v 0.452400 3.127914 -1.863547
v 0.452399 3.127914 1.863549
v 0.265387 -2.807025 -1.672369
v 0.265387 -2.807025 1.672370
v 0.265388 2.807025 -1.672369
v 0.265387 2.807025 1.672370
vn 0.0000 -1.0000 -0.0000
vn 0.0000 1.0000 0.0000
vn -0.0000 -0.0000 1.0000
vn -1.0000 -0.0000 -0.0000
vn 0.0000 0.0000 -1.0000
vn 1.0000 0.0000 0.0000
usemtl Material
s off
f 9//1 10//1 3//1 4//1
f 11//2 8//2 7//2 12//2
f 5//1 6//1 16//1 15//1
f 10//3 12//3 7//3 3//3
f 3//4 7//4 8//4 4//4
f 11//5 9//5 4//5 8//5
f 1//6 2//6 10//6 9//6
f 5//6 1//6 9//6 11//6
f 2//6 6//6 12//6 10//6
f 6//6 5//6 11//6 12//6
f 13//6 15//6 16//6 14//6
f 1//3 5//3 15//3 13//3
f 6//5 2//5 14//5 16//5
f 2//2 1//2 13//2 14//2
