# Blender v2.79 (sub 0) OBJ File: 'Models_Capitole.blend'
# www.blender.org
mtllib Recepcion.mtl
o Cube.001
v 0.043709 0.005757 2.463747
v 0.043709 2.005758 2.463747
v 0.043709 0.005757 0.463747
v 0.043709 2.005758 0.463747
v 1.294484 0.005757 2.463747
v 1.294484 2.005758 2.463747
v 1.294484 0.005757 0.463747
v 1.294484 2.005758 0.463747
v 0.043709 2.005758 -0.813891
v 0.043709 0.005757 -0.813891
v 1.294484 0.005757 -0.813891
v 1.294484 2.005758 -0.813891
v -1.973218 2.005758 0.463747
v -1.973218 0.005757 0.463747
v -1.973218 2.005758 -0.813891
v -1.973218 0.005757 -0.813891
v 1.022540 2.005758 0.463747
v 1.020720 2.005758 2.463747
v -1.973218 2.005758 -0.538669
v 0.043709 2.005758 -0.538674
v -1.975674 2.000068 -0.550024
v 0.043709 1.783096 -0.813891
v 1.294484 1.777409 -0.813891
v -1.973218 1.783248 -0.813891
v 0.043709 2.005758 -0.947858
v 1.294484 2.005758 -0.947858
v -1.973218 2.005758 -0.947858
v 0.043709 1.783096 -0.947858
v 1.294484 1.777409 -0.947858
v -1.973218 1.783248 -0.947858
vn -1.0000 0.0000 0.0000
vn 0.0000 1.0000 -0.0000
vn 1.0000 0.0000 0.0000
vn 0.0000 0.0000 1.0000
vn 0.0000 -1.0000 0.0000
vn 0.0000 0.0000 -1.0000
vn -0.0001 -1.0000 0.0000
vn -0.0045 -1.0000 0.0000
usemtl None
s off
f 1//1 2//1 4//1 3//1
f 4//2 17//2 8//2 12//2 9//2 20//2
f 7//3 8//3 6//3 5//3
f 5//4 6//4 18//4 2//4 1//4
f 3//5 7//5 5//5 1//5
f 2//2 6//2 8//2 4//2
f 10//6 22//6 23//6 11//6
f 10//5 3//5 14//5 16//5
f 8//3 7//3 11//3 23//3 12//3
f 7//5 3//5 10//5 11//5
f 14//1 13//1 19//1 15//1 24//1 16//1
f 3//4 4//4 13//4 14//4
f 12//3 23//3 29//3 26//3
f 4//2 9//2 15//2 13//2
f 24//1 15//1 27//1 30//1
f 25//6 28//6 30//6 27//6
f 24//6 22//6 10//6 16//6
f 25//6 26//6 29//6 28//6
f 22//7 24//7 30//7 28//7
f 15//2 9//2 25//2 27//2
f 23//8 22//8 28//8 29//8
f 9//2 12//2 26//2 25//2
