# 3ds Max Wavefront OBJ Exporter v0.97b - (c)2007 guruware
# File Created: 29.07.2019 17:35:33

mtllib Heli.mtl

#
# object Cylinder001
#

v  -0.05 0.00 -0.05
v  33.68 0.00 -24.56
v  41.64 0.00 -0.05
v  12.83 0.00 -39.71
v  -12.94 0.00 -39.71
v  -33.79 0.00 -24.56
v  -41.75 0.00 -0.05
v  -33.79 0.00 24.45
v  -12.94 0.00 39.60
v  12.83 0.00 39.60
v  33.68 0.00 24.45
v  33.68 0.75 -24.56
v  41.64 0.75 -0.05
v  12.83 0.75 -39.71
v  -12.94 0.75 -39.71
v  -33.79 0.75 -24.56
v  -41.75 0.75 -0.05
v  -33.79 0.75 24.45
v  -12.94 0.75 39.60
v  12.83 0.75 39.60
v  33.68 0.75 24.45
v  33.68 1.51 -24.56
v  41.64 1.51 -0.05
v  12.83 1.51 -39.71
v  -12.94 1.51 -39.71
v  -33.79 1.51 -24.56
v  -41.75 1.51 -0.05
v  -33.79 1.51 24.45
v  -12.94 1.51 39.60
v  12.83 1.51 39.60
v  33.68 1.51 24.45
v  33.68 2.26 -24.56
v  41.64 2.26 -0.05
v  12.83 2.26 -39.71
v  -12.94 2.26 -39.71
v  -33.79 2.26 -24.56
v  -41.75 2.26 -0.05
v  -33.79 2.26 24.45
v  -12.94 2.26 39.60
v  12.83 2.26 39.60
v  33.68 2.26 24.45
v  33.68 3.02 -24.56
v  41.64 3.02 -0.05
v  12.83 3.02 -39.71
v  -12.94 3.02 -39.71
v  -33.79 3.02 -24.56
v  -41.75 3.02 -0.05
v  -33.79 3.02 24.45
v  -12.94 3.02 39.60
v  12.83 3.02 39.60
v  33.68 3.02 24.45
v  33.68 3.77 -24.56
v  41.64 3.77 -0.05
v  12.83 3.77 -39.71
v  -12.94 3.77 -39.71
v  -33.79 3.77 -24.56
v  -41.75 3.77 -0.05
v  -33.79 3.77 24.45
v  -12.94 3.77 39.60
v  12.83 3.77 39.60
v  33.68 3.77 24.45
v  -0.05 3.77 -0.05
# 62 vertices

vn 0.00 -1.00 -0.00
vn 1.00 -0.00 0.00
vn 0.81 -0.00 -0.59
vn 1.00 -0.00 -0.00
vn 0.31 -0.00 -0.95
vn -0.31 -0.00 -0.95
vn -0.81 -0.00 -0.59
vn -1.00 -0.00 -0.00
vn -0.81 -0.00 0.59
vn -0.31 -0.00 0.95
vn 0.31 -0.00 0.95
vn 0.81 -0.00 0.59
vn 0.81 0.00 -0.59
vn 1.00 0.00 -0.00
vn 0.31 0.00 -0.95
vn -0.31 0.00 -0.95
vn -0.81 0.00 -0.59
vn -1.00 0.00 -0.00
vn -0.81 0.00 0.59
vn -0.31 0.00 0.95
vn 0.31 0.00 0.95
vn 0.81 0.00 0.59
vn -1.00 0.00 0.00
vn 0.00 1.00 -0.00
# 24 vertex normals

vt 0.50 0.50 0.00
vt 0.10 0.81 0.00
vt 0.00 0.50 0.00
vt 0.35 1.00 0.00
vt 0.65 1.00 0.00
vt 0.90 0.81 0.00
vt 1.00 0.50 0.00
vt 0.90 0.19 0.00
vt 0.65 0.00 0.00
vt 0.35 0.00 0.00
vt 0.10 0.19 0.00
vt 0.50 0.00 1.00
vt 0.81 0.20 0.90
vt 0.50 0.20 1.00
vt 0.81 0.00 0.90
vt 0.10 0.00 0.81
vt 0.35 0.20 1.00
vt 0.10 0.20 0.81
vt 0.35 0.00 1.00
vt 0.65 0.20 1.00
vt 0.65 0.00 1.00
vt 0.90 0.20 0.81
vt 0.90 0.00 0.81
vt 0.19 0.00 0.10
vt 0.50 0.20 0.00
vt 0.19 0.20 0.10
vt 0.50 0.00 0.00
vt 0.81 0.20 0.10
vt 0.81 0.00 0.10
vt 0.10 0.00 0.19
vt 0.35 0.20 0.00
vt 0.10 0.20 0.19
vt 0.65 0.20 0.00
vt 0.90 0.20 0.19
vt 0.90 0.00 0.19
vt 0.19 0.00 0.90
vt 0.19 0.20 0.90
vt 0.81 0.40 0.90
vt 0.50 0.40 1.00
vt 0.35 0.40 1.00
vt 0.10 0.40 0.81
vt 0.65 0.40 1.00
vt 0.90 0.40 0.81
vt 0.50 0.40 0.00
vt 0.19 0.40 0.10
vt 0.81 0.40 0.10
vt 0.35 0.40 0.00
vt 0.10 0.40 0.19
vt 0.65 0.40 0.00
vt 0.90 0.40 0.19
vt 0.19 0.40 0.90
vt 0.81 0.60 0.90
vt 0.50 0.60 1.00
vt 0.35 0.60 1.00
vt 0.10 0.60 0.81
vt 0.65 0.60 1.00
vt 0.90 0.60 0.81
vt 0.50 0.60 0.00
vt 0.19 0.60 0.10
vt 0.81 0.60 0.10
vt 0.35 0.60 0.00
vt 0.10 0.60 0.19
vt 0.65 0.60 0.00
vt 0.90 0.60 0.19
vt 0.19 0.60 0.90
vt 0.81 0.80 0.90
vt 0.50 0.80 1.00
vt 0.35 0.80 1.00
vt 0.10 0.80 0.81
vt 0.65 0.80 1.00
vt 0.90 0.80 0.81
vt 0.50 0.80 0.00
vt 0.19 0.80 0.10
vt 0.81 0.80 0.10
vt 0.35 0.80 0.00
vt 0.10 0.80 0.19
vt 0.65 0.80 0.00
vt 0.90 0.80 0.19
vt 0.19 0.80 0.90
vt 0.81 1.00 0.90
vt 0.50 1.00 1.00
vt 0.35 1.00 1.00
vt 0.10 1.00 0.81
vt 0.65 1.00 1.00
vt 0.90 1.00 0.81
vt 0.50 1.00 0.00
vt 0.19 1.00 0.10
vt 0.81 1.00 0.10
vt 0.10 1.00 0.19
vt 0.90 1.00 0.19
vt 0.19 1.00 0.90
vt 0.50 0.50 1.00
vt 1.00 0.50 1.00
vt 0.90 0.81 1.00
vt 0.10 0.81 1.00
vt 0.00 0.50 1.00
vt 0.10 0.19 1.00
vt 0.90 0.19 1.00
# 98 texture coords

g Cylinder001
usemtl wire_027177088
s 1
f 1/1/1 2/2/1 3/3/1 
f 1/1/1 4/4/1 2/2/1 
f 1/1/1 5/5/1 4/4/1 
f 1/1/1 6/6/1 5/5/1 
f 1/1/1 7/7/1 6/6/1 
f 1/1/1 8/8/1 7/7/1 
f 1/1/1 9/9/1 8/8/1 
f 1/1/1 10/10/1 9/9/1 
f 1/1/1 11/11/1 10/10/1 
f 1/1/1 3/3/1 11/11/1 
s 8
f 3/12/2 12/13/3 13/14/4 
f 3/12/2 2/15/3 12/13/3 
f 2/16/3 14/17/5 12/18/3 
f 2/16/3 4/19/5 14/17/5 
f 4/19/5 15/20/6 14/17/5 
f 4/19/5 5/21/6 15/20/6 
f 5/21/6 16/22/7 15/20/6 
f 5/21/6 6/23/7 16/22/7 
f 6/24/7 17/25/8 16/26/7 
f 6/24/7 7/27/8 17/25/8 
f 7/27/8 18/28/9 17/25/8 
f 7/27/8 8/29/9 18/28/9 
f 8/30/9 19/31/10 18/32/9 
f 8/30/9 9/10/10 19/31/10 
f 9/10/10 20/33/11 19/31/10 
f 9/10/10 10/9/11 20/33/11 
f 10/9/11 21/34/12 20/33/11 
f 10/9/11 11/35/12 21/34/12 
f 11/36/12 13/14/4 21/37/12 
f 11/36/12 3/12/2 13/14/4 
f 13/14/4 22/38/13 23/39/14 
f 13/14/4 12/13/3 22/38/13 
f 12/18/3 24/40/15 22/41/13 
f 12/18/3 14/17/5 24/40/15 
f 14/17/5 25/42/16 24/40/15 
f 14/17/5 15/20/6 25/42/16 
f 15/20/6 26/43/17 25/42/16 
f 15/20/6 16/22/7 26/43/17 
f 16/26/7 27/44/18 26/45/17 
f 16/26/7 17/25/8 27/44/18 
f 17/25/8 28/46/19 27/44/18 
f 17/25/8 18/28/9 28/46/19 
f 18/32/9 29/47/20 28/48/19 
f 18/32/9 19/31/10 29/47/20 
f 19/31/10 30/49/21 29/47/20 
f 19/31/10 20/33/11 30/49/21 
f 20/33/11 31/50/22 30/49/21 
f 20/33/11 21/34/12 31/50/22 
f 21/37/12 23/39/14 31/51/22 
f 21/37/12 13/14/4 23/39/14 
f 23/39/14 32/52/13 33/53/14 
f 23/39/14 22/38/13 32/52/13 
f 22/41/13 34/54/15 32/55/13 
f 22/41/13 24/40/15 34/54/15 
f 24/40/15 35/56/16 34/54/15 
f 24/40/15 25/42/16 35/56/16 
f 25/42/16 36/57/17 35/56/16 
f 25/42/16 26/43/17 36/57/17 
f 26/45/17 37/58/23 36/59/17 
f 26/45/17 27/44/18 37/58/23 
f 27/44/18 38/60/19 37/58/23 
f 27/44/18 28/46/19 38/60/19 
f 28/48/19 39/61/20 38/62/19 
f 28/48/19 29/47/20 39/61/20 
f 29/47/20 40/63/21 39/61/20 
f 29/47/20 30/49/21 40/63/21 
f 30/49/21 41/64/22 40/63/21 
f 30/49/21 31/50/22 41/64/22 
f 31/51/22 33/53/14 41/65/22 
f 31/51/22 23/39/14 33/53/14 
f 33/53/14 42/66/13 43/67/14 
f 33/53/14 32/52/13 42/66/13 
f 32/55/13 44/68/15 42/69/13 
f 32/55/13 34/54/15 44/68/15 
f 34/54/15 45/70/16 44/68/15 
f 34/54/15 35/56/16 45/70/16 
f 35/56/16 46/71/17 45/70/16 
f 35/56/16 36/57/17 46/71/17 
f 36/59/17 47/72/23 46/73/17 
f 36/59/17 37/58/23 47/72/23 
f 37/58/23 48/74/19 47/72/23 
f 37/58/23 38/60/19 48/74/19 
f 38/62/19 49/75/20 48/76/19 
f 38/62/19 39/61/20 49/75/20 
f 39/61/20 50/77/21 49/75/20 
f 39/61/20 40/63/21 50/77/21 
f 40/63/21 51/78/22 50/77/21 
f 40/63/21 41/64/22 51/78/22 
f 41/65/22 43/67/14 51/79/22 
f 41/65/22 33/53/14 43/67/14 
f 43/67/14 52/80/13 53/81/14 
f 43/67/14 42/66/13 52/80/13 
f 42/69/13 54/82/15 52/83/13 
f 42/69/13 44/68/15 54/82/15 
f 44/68/15 55/84/16 54/82/15 
f 44/68/15 45/70/16 55/84/16 
f 45/70/16 56/85/17 55/84/16 
f 45/70/16 46/71/17 56/85/17 
f 46/73/17 57/86/23 56/87/17 
f 46/73/17 47/72/23 57/86/23 
f 47/72/23 58/88/19 57/86/23 
f 47/72/23 48/74/19 58/88/19 
f 48/76/19 59/4/20 58/89/19 
f 48/76/19 49/75/20 59/4/20 
f 49/75/20 60/5/21 59/4/20 
f 49/75/20 50/77/21 60/5/21 
f 50/77/21 61/90/22 60/5/21 
f 50/77/21 51/78/22 61/90/22 
f 51/79/22 53/81/14 61/91/22 
f 51/79/22 43/67/14 53/81/14 
s 1
f 62/92/24 53/93/24 52/94/24 
f 62/92/24 52/94/24 54/84/24 
f 62/92/24 54/84/24 55/82/24 
f 62/92/24 55/82/24 56/95/24 
f 62/92/24 56/95/24 57/96/24 
f 62/92/24 57/96/24 58/97/24 
f 62/92/24 58/97/24 59/19/24 
f 62/92/24 59/19/24 60/21/24 
f 62/92/24 60/21/24 61/98/24 
f 62/92/24 61/98/24 53/93/24 
# 120 faces

